<svg width="17" height="16" viewBox="0 0 17 16" fill="none" xmlns="http://www.w3.org/2000/svg">
<g id="Component 1">
<path id="Vector" d="M6.30852 15C5.69872 14.9785 5.09925 14.8365 4.54482 14.5824C3.99039 14.3283 3.49201 13.9671 3.07852 13.5197C2.65745 13.1356 2.31641 12.6725 2.07489 12.157C1.83338 11.6414 1.69612 11.0834 1.67097 10.515C1.64582 9.94648 1.73326 9.37863 1.92831 8.84386C2.12335 8.30909 2.42217 7.81789 2.80769 7.39833L7.49219 2.84733C10.2708 0.316772 12.7986 0.746866 14.2331 1.99714C14.8911 2.50577 15.3579 3.22076 15.5581 4.02658C15.7583 4.83241 15.6803 5.68201 15.3365 6.43812C15.2864 6.52748 15.2191 6.606 15.1383 6.66909C15.0575 6.73219 14.9649 6.7786 14.8659 6.8056C14.7669 6.83261 14.6635 6.83967 14.5617 6.82638C14.4599 6.81308 14.3619 6.7797 14.2732 6.72818C14.089 6.61245 13.9569 6.43014 13.9045 6.21944C13.8522 6.00874 13.8836 5.78602 13.9923 5.59793C14.1331 5.17414 14.1362 4.71683 14.0012 4.29118C13.8661 3.86554 13.5997 3.49326 13.24 3.22741C12.0162 2.22719 10.2307 2.47725 8.53542 4.04759L3.88101 8.55858C2.55691 9.93889 3.43964 11.5592 4.18194 12.3794C4.92424 13.1996 6.52921 14.0698 7.8834 12.6695L11.2839 9.13871C11.411 9.01713 11.5121 8.87115 11.581 8.70955C11.65 8.54796 11.6854 8.37412 11.6852 8.1985C11.6678 7.89067 11.5395 7.59944 11.324 7.37832C11.2171 7.26598 11.0875 7.17743 10.9438 7.11848C10.8001 7.05952 10.6456 7.03148 10.4903 7.0362C10.335 7.04093 10.1824 7.0783 10.0426 7.14587C9.9028 7.21345 9.77888 7.3097 9.67896 7.42833L6.49911 10.7291C6.42958 10.8045 6.34509 10.8648 6.25098 10.906C6.15687 10.9473 6.05521 10.9685 5.95242 10.9685C5.84963 10.9685 5.74797 10.9473 5.65386 10.906C5.55975 10.8648 5.47526 10.8045 5.40573 10.7291C5.25504 10.5774 5.1705 10.3725 5.1705 10.1589C5.1705 9.94541 5.25504 9.74052 5.40573 9.58881L8.58557 6.28808C8.82936 6.01326 9.12891 5.79321 9.46439 5.6425C9.79987 5.49178 10.1636 5.41385 10.5316 5.41385C10.8996 5.41385 11.2633 5.49178 11.5988 5.6425C11.9343 5.79321 12.2338 6.01326 12.4776 6.28808C13.0003 6.82669 13.2883 7.54943 13.2789 8.29882C13.2695 9.04822 12.9634 9.76355 12.4275 10.289L8.98681 13.8097C8.64751 14.1824 8.23421 14.4807 7.77314 14.6856C7.31207 14.8905 6.81331 14.9976 6.30852 15Z" fill="#C06ECC"/>
</g>
</svg>
